<svg xmlns="http://www.w3.org/2000/svg" xmlns:xlink="http://www.w3.org/1999/xlink" viewBox="0 0 3710 3710"><defs><style>.cls-1{fill:url(#linear-gradient);}.cls-2{fill:url(#linear-gradient-2);}.cls-3{isolation:isolate;}.cls-15,.cls-30,.cls-4{fill:#fff;}.cls-5{fill:#f4f7fa;}.cls-6{clip-path:url(#clip-path);}.cls-7{opacity:0.5;}.cls-15,.cls-16,.cls-30,.cls-7{mix-blend-mode:soft-light;}.cls-8{clip-path:url(#clip-path-2);}.cls-9{fill:#97a6b7;}.cls-10{fill:url(#linear-gradient-5);}.cls-11{fill:url(#linear-gradient-6);}.cls-12{fill:url(#linear-gradient-7);}.cls-13{fill:#d8dee8;}.cls-13,.cls-22{opacity:0.3;mix-blend-mode:multiply;}.cls-14{fill:url(#linear-gradient-8);}.cls-15{opacity:0.6;}.cls-17{fill:url(#linear-gradient-9);}.cls-18{fill:url(#linear-gradient-10);}.cls-19{fill:url(#linear-gradient-11);}.cls-20{fill:url(#linear-gradient-12);}.cls-21{fill:url(#linear-gradient-13);}.cls-22{fill:url(#linear-gradient-14);}.cls-23{fill:url(#linear-gradient-15);}.cls-24{fill:url(#linear-gradient-16);}.cls-25{fill:url(#linear-gradient-17);}.cls-26{fill:url(#linear-gradient-18);}.cls-27{fill:url(#linear-gradient-19);}.cls-28{fill:url(#linear-gradient-20);}.cls-29{fill:url(#linear-gradient-21);}.cls-30{opacity:0.48;}.cls-31{fill:url(#linear-gradient-22);}.cls-32{fill:url(#linear-gradient-23);}.cls-33{fill:url(#linear-gradient-24);}.cls-34{fill:url(#linear-gradient-25);}.cls-35{fill:url(#linear-gradient-26);}.cls-36{fill:url(#linear-gradient-27);}.cls-37{fill:url(#linear-gradient-28);}.cls-38{fill:url(#linear-gradient-29);}</style><linearGradient id="linear-gradient" x1="2461.45" y1="1023.54" x2="1564.01" y2="1398.63" gradientUnits="userSpaceOnUse"><stop offset="0" stop-color="#aa80f9"/><stop offset="1" stop-color="#6165d7"/></linearGradient><linearGradient id="linear-gradient-2" x1="742.58" y1="837.75" x2="1355.16" y2="1632.08" gradientUnits="userSpaceOnUse"><stop offset="0" stop-color="#e38ddd"/><stop offset="1" stop-color="#9571f6"/></linearGradient><clipPath id="clip-path"><path class="cls-1" d="M1077.28,1912.64c159.22,32.64,366.15,48.37,576-13.49,53.56-15.79,384.44-113.31,372.4-279.56-4.24-58.56-47.45-76.19-54.33-154.37-8.14-92.64,47.31-127.18,97.85-230.67,30.15-61.76,118.4-242.48,33.37-368.93-50.81-75.57-161.2-128.33-252.25-122.32C1716.8,752.11,1651,885.65,1543.2,1113.79c-95.59,202.24-87.43,258.11-158.5,402.38C1332,1623.23,1241.42,1767.11,1077.28,1912.64Z"/></clipPath><clipPath id="clip-path-2"><path class="cls-2" d="M588.2,1998.43c91.8-60.26,216.87-162.33,293.62-324.11C982.49,1462.16,911.62,1333.7,987.68,958c48.09-237.53,84.05-402.82,219.9-470.88,106.47-53.33,261.53-40.58,342.89,40.27,67.64,67.22,92.25,189.38,91.6,273.41-.52,68.48-17.86,115.24,14.39,157,33,42.67,78.81,29.77,110.84,62.7,65,66.78-9.19,237.51-21.17,265.11-133.3,307-466.28,471.57-612.39,541.63C1012.93,1885.18,828.91,1958.35,588.2,1998.43Z"/></clipPath><linearGradient id="linear-gradient-5" x1="1933.46" y1="3522.03" x2="1994.74" y2="2929.69" gradientUnits="userSpaceOnUse"><stop offset="0" stop-color="#444b8c"/><stop offset="1" stop-color="#26264f"/></linearGradient><linearGradient id="linear-gradient-6" x1="1508.22" y1="1869.3" x2="861.41" y2="1944.19" gradientUnits="userSpaceOnUse"><stop offset="0" stop-color="#444b8c"/><stop offset="0.39" stop-color="#383c74"/><stop offset="1" stop-color="#26264f"/></linearGradient><linearGradient id="linear-gradient-7" x1="2609.03" y1="681.5" x2="872.87" y2="3323.19" xlink:href="#linear-gradient-5"/><linearGradient id="linear-gradient-8" x1="2386.82" y1="1018.59" x2="357.9" y2="3993.9" gradientUnits="userSpaceOnUse"><stop offset="0" stop-color="#ffc444"/><stop offset="1" stop-color="#f36f56"/></linearGradient><linearGradient id="linear-gradient-9" x1="205.57" y1="2954.48" x2="226.82" y2="3224.97" gradientTransform="matrix(-1, 0, 0, 1, 1460.94, 0)" gradientUnits="userSpaceOnUse"><stop offset="0" stop-color="#311944"/><stop offset="1" stop-color="#a03976"/></linearGradient><linearGradient id="linear-gradient-10" x1="260.43" y1="3105.07" x2="256.57" y2="2824.92" gradientTransform="matrix(-1, 0, 0, 1, 1460.94, 0)" xlink:href="#linear-gradient-8"/><linearGradient id="linear-gradient-11" x1="607.2" y1="2922.92" x2="628.46" y2="3193.41" xlink:href="#linear-gradient-9"/><linearGradient id="linear-gradient-12" x1="628.52" y1="3099.99" x2="624.65" y2="2819.83" gradientTransform="matrix(-1, 0, 0, 1, 1460.94, 0)" xlink:href="#linear-gradient-8"/><linearGradient id="linear-gradient-13" x1="193.58" y1="2651.23" x2="400.71" y2="2651.23" gradientTransform="matrix(-1, 0, 0, 1, 1460.94, 0)" gradientUnits="userSpaceOnUse"><stop offset="0" stop-color="#444b8c"/><stop offset="1" stop-color="#3e4177"/></linearGradient><linearGradient id="linear-gradient-14" x1="193.58" y1="2651.24" x2="400.71" y2="2651.24" xlink:href="#linear-gradient-13"/><linearGradient id="linear-gradient-15" x1="251.08" y1="2630.81" x2="668.07" y2="2630.81" xlink:href="#linear-gradient-13"/><linearGradient id="linear-gradient-16" x1="1180.73" y1="2613.92" x2="1334.33" y2="1744.48" gradientUnits="userSpaceOnUse"><stop offset="0" stop-color="#311944"/><stop offset="1" stop-color="#893976"/></linearGradient><linearGradient id="linear-gradient-17" x1="180.12" y1="1890.05" x2="180.12" y2="1722.68" gradientTransform="matrix(-1, 0, 0, 1, 1460.94, 0)" xlink:href="#linear-gradient-8"/><linearGradient id="linear-gradient-18" x1="-140.55" y1="2444.87" x2="-65.1" y2="2444.87" gradientTransform="matrix(-1, 0, 0, 1, 1460.94, 0)" xlink:href="#linear-gradient-8"/><linearGradient id="linear-gradient-19" x1="-1728.68" y1="893.07" x2="-1799.76" y2="712.56" gradientTransform="matrix(-0.88, -0.48, -0.48, 0.88, 160.86, 210.43)" xlink:href="#linear-gradient-13"/><linearGradient id="linear-gradient-20" x1="61.81" y1="1841.81" x2="140.06" y2="1689.66" gradientTransform="matrix(-1, 0, 0, 1, 1460.94, 0)" xlink:href="#linear-gradient-8"/><linearGradient id="linear-gradient-21" x1="1946.17" y1="1922.13" x2="823.94" y2="2818.35" xlink:href="#linear-gradient"/><linearGradient id="linear-gradient-22" x1="822.12" y1="2550.57" x2="975.72" y2="1681.13" xlink:href="#linear-gradient-16"/><linearGradient id="linear-gradient-23" x1="828.71" y1="2304.53" x2="845.41" y2="2209.99" xlink:href="#linear-gradient-8"/><linearGradient id="linear-gradient-24" x1="2280.43" y1="1638.61" x2="1978.69" y2="1461.75" gradientUnits="userSpaceOnUse"><stop offset="0" stop-color="#ff9085"/><stop offset="1" stop-color="#fb6fbb"/></linearGradient><linearGradient id="linear-gradient-25" x1="1906.68" y1="1433.91" x2="1974.38" y2="1464.37" xlink:href="#linear-gradient-24"/><linearGradient id="linear-gradient-26" x1="2209.62" y1="1737.07" x2="1439.12" y2="761.11" xlink:href="#linear-gradient-24"/><linearGradient id="linear-gradient-27" x1="3163.33" y1="1362.14" x2="2615.75" y2="1041.2" xlink:href="#linear-gradient-24"/><linearGradient id="linear-gradient-28" x1="2484.05" y1="989.54" x2="2607.25" y2="1044.98" xlink:href="#linear-gradient-24"/><linearGradient id="linear-gradient-29" x1="2464.2" y1="799.39" x2="3063.75" y2="1617.7" xlink:href="#linear-gradient-24"/></defs><g class="cls-3"><g id="Background"><rect class="cls-4" width="3710" height="3710"/></g><g id="Illustration"><path class="cls-5" d="M1109.42,647.75c-93.55,133.92,16.14,351-122.68,451.78-135.13,98-301.13-62.67-428.48,21.73-188.92,125.2-154.42,698.1,121.79,1054.06,83.07,107,152.47,148.69,183.21,269.76,66,260-166,414.6-121.83,543.17,99.4,289.5,1628.1,532.42,2241.48-337.61,286.48-406.34,329.34-993.1,73.38-1438.75C2593.78,406.62,1319.34,347.24,1109.42,647.75Z"/><path class="cls-1" d="M1077.28,1912.64c159.22,32.64,366.15,48.37,576-13.49,53.56-15.79,384.44-113.31,372.4-279.56-4.24-58.56-47.45-76.19-54.33-154.37-8.14-92.64,47.31-127.18,97.85-230.67,30.15-61.76,118.4-242.48,33.37-368.93-50.81-75.57-161.2-128.33-252.25-122.32C1716.8,752.11,1651,885.65,1543.2,1113.79c-95.59,202.24-87.43,258.11-158.5,402.38C1332,1623.23,1241.42,1767.11,1077.28,1912.64Z"/><g class="cls-6"><g class="cls-7"><path class="cls-4" d="M829.4,1948.39c-147.86,0-296.81-38.86-443.64-115.85l3.16-6c166.41,87.26,335.47,125.18,502.5,112.77,222.52-16.57,430-125.74,616.59-324.49,194.44-207.06,317.54-459.44,386.57-634.69,47.83-121.42,63.72-263.16,47.24-421.28l6.76-.71c16.61,159.22.57,302-47.66,424.48-69.25,175.81-192.77,429-387.94,636.86-187.83,200-396.78,309.92-621.06,326.62Q860.71,1948.4,829.4,1948.39Z"/><path class="cls-4" d="M1730.91,1323.53l-1.49-3c-.35-.72-35.4-72.92-56.79-176.83-19.75-96-31.6-239.49,24.15-378.15l6.32,2.54c-55.1,137-43.37,279-23.84,374,18.73,91.1,48,157.58,54.83,172.32,375.92-183.74,416.1-470.76,419.44-554.54.1-2.53.14-3.44.24-4l6.72,1.08-3.36-.54,3.36.52c-.06.45-.09,1.56-.16,3.27-3.39,85-44.14,376.57-426.37,561.89Z"/><path class="cls-4" d="M1762.51,1666c-70.16,0-153.5-13.08-250-49.16l-1.68-.63-.43-1.75c-.59-2.39-57.76-242.78,8.22-541.36l66.57-301.26,6.65,1.47-66.57,301.25c-62.69,283.69-13.7,514.3-8.66,536.55,111.32,41.37,275.43,77,428.39,13.65,91.74-38,136.38-94.23,136.82-94.79l5.36,4.19c-.45.57-46.19,58.25-139.57,96.89C1902.34,1649.79,1840.59,1666,1762.51,1666Z"/></g></g><path class="cls-2" d="M588.2,1998.43c91.8-60.26,216.87-162.33,293.62-324.11C982.49,1462.16,911.62,1333.7,987.68,958c48.09-237.53,84.05-402.82,219.9-470.88,106.47-53.33,261.53-40.58,342.89,40.27,67.64,67.22,92.25,189.38,91.6,273.41-.52,68.48-17.86,115.24,14.39,157,33,42.67,78.81,29.77,110.84,62.7,65,66.78-9.19,237.51-21.17,265.11-133.3,307-466.28,471.57-612.39,541.63C1012.93,1885.18,828.91,1958.35,588.2,1998.43Z"/><g class="cls-8"><g class="cls-7"><path class="cls-4" d="M487.74,2042l-1.29-6.69c146.06-28.15,274.74-69.65,382.47-123.35,158.84-79.16,267.22-182.86,322.12-308.2,43-98.18,52.64-206,66-355.21,10.64-119.12,7.44-204.51,4.62-279.84-3.69-98.46-6.61-176.23,23.51-283.07,30.56-108.42,86.11-211.82,165.08-307.31l5.25,4.34C1377.1,477.41,1322,580,1291.69,687.48c-29.82,105.81-26.93,183.1-23.26,281,2.83,75.54,6,161.16-4.64,280.71-12.88,144.22-23.06,258.13-66.51,357.33-55.56,126.84-165,231.67-325.32,311.57C763.68,1972,634.41,2013.72,487.74,2042Z"/><path class="cls-4" d="M1267.56,1165.1l-3.21-2.12c-.72-.48-72.84-48.74-136.91-142.74-59.14-86.75-123.44-231.38-94-427.75l6.73,1c-29.16,194.19,34.39,337.16,92.84,422.91,55.73,81.75,117.39,128.35,131.88,138.69C1366.15,953.85,1503.42,840.53,1601,780.83c106.47-65.12,190.2-82.33,191-82.49l1.33,6.67c-.82.17-83.6,17.22-189.08,81.8-97.32,59.58-234.45,173-335,374.85Z"/><path class="cls-4" d="M1229.65,1486.11l-1-2.25c-.57-1.26-58.19-127.26-140.66-242.27-82.05-114.4-308-188.57-310.24-189.31l2.1-6.48c2.29.74,230.33,75.63,313.67,191.82,76.77,107.05,132.09,223.56,140.28,241.15,133.22-16.68,293.62-167.34,405-291.22,121.73-135.34,212.78-268.77,213.68-270.11l5.64,3.83c-.91,1.34-92.23,135.15-214.26,270.83-164.19,182.56-302.73,281.38-411.77,293.73Z"/><path class="cls-4" d="M955.67,1896.84c-21.55,0-33.7-.62-34.07-.64l-6.78-.37,4.35-5.21c44.54-53.42,67.93-113.29,69.51-178,1.27-51.85-11.37-106.94-37.58-163.74-44.77-97-114.52-166.23-115.22-166.92l4.78-4.85c.7.69,71.24,70.63,116.55,168.75,41.39,89.63,69.58,221.47-28.46,343.76,27.35.85,134.72,2.23,273.74-20.62,148.34-24.37,364.09-82.13,549.52-218.83l360.12-265.5,4,5.48-360.13,265.49c-186.57,137.55-403.5,195.62-552.64,220.11C1092.93,1893.93,1002.3,1896.84,955.67,1896.84Z"/></g></g><path class="cls-9" d="M2240.86,2989a116.58,116.58,0,0,1-77.29-87.77l-57.44-284.32-491.42,17.45-60.48,296.2c-8.47,41.49,25.44,83.1,64.48,98.38l205.6,80.44a267.11,267.11,0,0,0,120.2,17.43L2379,3089.64a27,27,0,0,0,24.37-23.88c1.47-12.81,10.37-27.19-1.74-31.21Z"/><path class="cls-10" d="M2245.73,2971.7a115.54,115.54,0,0,1-77.22-86.65l-57.38-280.75-479.44,17.25L1571.27,2914a85.58,85.58,0,0,0,52.93,97.13l205.4,79.43a269.9,269.9,0,0,0,120.07,17.21l434.07-36.71a26.78,26.78,0,0,0,6.09-52.13Z"/><path class="cls-11" d="M610.56,2805.89c-53.29,3.17-96.88-31.4-96.88-77.09V1082.12c0-45.69,43.59-81,96.88-78.66l2464.49,106.78c39.13,1.7,70.81,34.68,70.81,73.54V2584.27c0,38.86-31.68,72.36-70.81,74.7Z"/><path class="cls-12" d="M632.71,2805.89c-53.29,3.17-96.89-31.4-96.89-77.09V1082.12c0-45.69,43.6-81,96.89-78.66L3097.2,1110.24c39.13,1.7,70.81,34.68,70.81,73.54V2584.27c0,38.86-31.68,72.36-70.81,74.7Z"/><path class="cls-13" d="M3097.2,1143.2,632.71,1041.81c-28.49-1.17-51.65,17.66-51.65,42V2726.32c0,24.4,23.16,42.84,51.65,41.21L3097.2,2626c21-1.21,37.93-19.08,37.93-39.93V1182.51C3135.13,1161.66,3118.17,1144.06,3097.2,1143.2Z"/><path class="cls-14" d="M632.71,2627.64c-11.09.55-20.12-6.73-20.12-16.22V1085.08c0-9.49,9-16.85,20.12-16.41l2464.49,97.6a15.55,15.55,0,0,1,14.83,15.35v1308.7a15.74,15.74,0,0,1-14.83,15.49Z"/><path class="cls-15" d="M2839.92,2557c-207.34-128.25-62.52-492.91-295.36-676.13-234.75-184.72-565.08,41.84-729.51-149.46C1692.61,1589,1835.87,1417,1719,1283.06,1535.63,1073,1066.29,1361.91,850.67,1155c-30.62-29.39-61.51-74-79.09-145.49l-138.87-6c-53.29-2.31-96.89,33-96.89,78.66V2728.8c0,45.69,43.6,80.26,96.89,77.09L3097.2,2659c39.13-2.34,70.81-35.84,70.81-74.7v-24.89C3004.36,2614.9,2904.33,2596.88,2839.92,2557Z"/><g class="cls-16"><path class="cls-4" d="M2952.93,1256.41l-1222.79-36.14a35.9,35.9,0,0,0-37,35.88V1766.2a35.91,35.91,0,0,0,36.06,35.9l1222.79-5a35.91,35.91,0,0,0,35.76-35.9V1292.3A35.9,35.9,0,0,0,2952.93,1256.41Z"/><path class="cls-4" d="M2951.55,1875l-1222.79,11a35.9,35.9,0,0,0-35.59,35.9v71.68a35.9,35.9,0,0,0,36.53,35.89l1222.79-21.12a35.91,35.91,0,0,0,35.29-35.9v-61.52A35.9,35.9,0,0,0,2951.55,1875Z"/><path class="cls-4" d="M2951.11,2071.09,1728.32,2097a35.91,35.91,0,0,0-35.15,35.9v318.42a35.9,35.9,0,0,0,37.48,35.87l1222.79-53.53a35.91,35.91,0,0,0,34.34-35.87V2107A35.9,35.9,0,0,0,2951.11,2071.09Z"/><path class="cls-4" d="M949.87,1197.2l-189.08-5.59a35.91,35.91,0,0,0-37,35.89v339.75a35.89,35.89,0,0,0,35.65,35.9l189.08,1.33a35.91,35.91,0,0,0,36.16-35.91V1233.09A35.92,35.92,0,0,0,949.87,1197.2Z"/><path class="cls-4" d="M1276.64,1206.86,1097,1201.55a35.9,35.9,0,0,0-37,35.89V1569.6a35.9,35.9,0,0,0,35.65,35.91l179.63,1.25a35.9,35.9,0,0,0,36.16-35.9V1242.75A35.92,35.92,0,0,0,1276.64,1206.86Z"/><path class="cls-4" d="M1591.76,1216.18l-170.7-5a35.9,35.9,0,0,0-37,35.89v324.85a35.91,35.91,0,0,0,35.65,35.91l170.7,1.19a35.89,35.89,0,0,0,36.15-35.9v-321A35.9,35.9,0,0,0,1591.76,1216.18Z"/></g><path class="cls-4" d="M1793.66,1759.28a8.51,8.51,0,0,1,0-17l40.86-.17h0a8.51,8.51,0,0,1,0,17l-40.86.17Zm81.73-.34a8.51,8.51,0,0,1,0-17l40.86-.17h0a8.51,8.51,0,0,1,0,17l-40.86.17Zm81.71-.34a8.51,8.51,0,0,1,0-17l40.86-.16a8.51,8.51,0,1,1,.07,17l-40.86.16Zm81.73-.33a8.51,8.51,0,0,1,0-17l40.86-.17h0a8.51,8.51,0,0,1,0,17l-40.86.17Zm81.71-.34a8.51,8.51,0,0,1,0-17l40.86-.17h0a8.51,8.51,0,0,1,0,17l-40.86.17Zm81.73-.33a8.52,8.52,0,0,1,0-17l40.86-.17h0a8.52,8.52,0,0,1,0,17l-40.86.17Zm81.72-.34a8.51,8.51,0,0,1,0-17l40.86-.17h0a8.51,8.51,0,0,1,0,17l-40.86.17Zm81.72-.34a8.51,8.51,0,0,1,0-17l40.86-.17h0a8.51,8.51,0,0,1,0,17l-40.86.17Zm81.72-.34a8.51,8.51,0,0,1,0-17l40.86-.16h0a8.51,8.51,0,0,1,0,17l-40.86.16Zm81.71-.33a8.51,8.51,0,0,1,0-17l40.86-.17h0a8.51,8.51,0,0,1,0,17l-40.86.17Zm-775.71-.12a8.43,8.43,0,0,1-4.62-1.37,28.61,28.61,0,0,1-13.08-24.07v-20.76a8.51,8.51,0,0,1,17,0v20.76a11.61,11.61,0,0,0,5.33,9.79,8.51,8.51,0,0,1-4.65,15.65Zm857.44-.22a8.51,8.51,0,0,1,0-17l40.86-.17h0a8.51,8.51,0,0,1,0,17l-40.86.17Zm81.71-.34a8.51,8.51,0,0,1,0-17l40.86-.16a8.51,8.51,0,1,1,.07,17l-40.86.16Zm81.73-.33a8.51,8.51,0,0,1,0-17l40.86-.17h0a8.51,8.51,0,0,1,0,17l-40.86.17Zm81.72-.34a8.51,8.51,0,0,1,0-17l40.86-.17h0a8.51,8.51,0,0,1,0,17l-40.86.17Zm78-10.4a8.52,8.52,0,0,1-7.37-12.75,11.73,11.73,0,0,0,1.54-5.8v-30.36a8.51,8.51,0,0,1,17,0V1726a28.75,28.75,0,0,1-3.8,14.27A8.51,8.51,0,0,1,2934,1744.5Zm-1189.8-66.92a8.51,8.51,0,0,1-8.51-8.51v-40.86a8.51,8.51,0,1,1,17,0v40.86A8.51,8.51,0,0,1,1744.24,1677.58Zm1192.48-14.34a8.51,8.51,0,0,1-8.51-8.51v-40.85a8.51,8.51,0,0,1,17,0v40.85A8.51,8.51,0,0,1,2936.72,1663.24Zm-1192.48-67.38a8.51,8.51,0,0,1-8.51-8.51v-40.86a8.51,8.51,0,1,1,17,0v40.86A8.51,8.51,0,0,1,1744.24,1595.86Zm1192.48-14.33a8.51,8.51,0,0,1-8.51-8.52v-40.86a8.51,8.51,0,0,1,17,0V1573A8.51,8.51,0,0,1,2936.72,1581.53Zm-1192.48-67.39a8.51,8.51,0,0,1-8.51-8.52v-40.86a8.51,8.51,0,0,1,17,0v40.86A8.51,8.51,0,0,1,1744.24,1514.14Zm1192.48-14.34a8.51,8.51,0,0,1-8.51-8.51v-40.86a8.51,8.51,0,0,1,17,0v40.86A8.51,8.51,0,0,1,2936.72,1499.8Zm-1192.48-67.39a8.51,8.51,0,0,1-8.51-8.51v-40.85a8.51,8.51,0,1,1,17,0v40.85A8.51,8.51,0,0,1,1744.24,1432.41Zm1192.48-14.33a8.51,8.51,0,0,1-8.51-8.51v-40.86a8.51,8.51,0,0,1,17,0v40.86A8.51,8.51,0,0,1,2936.72,1418.08Zm-1192.48-67.39a8.51,8.51,0,0,1-8.51-8.51v-40.86a8.51,8.51,0,0,1,17,0v40.86A8.51,8.51,0,0,1,1744.24,1350.69Zm1192.48-14.33a8.51,8.51,0,0,1-8.51-8.51v-1.22a11.63,11.63,0,0,0-11.35-11.68l-8.49-.26a8.51,8.51,0,0,1,.25-17h.26l8.49.25a28.57,28.57,0,0,1,27.86,28.7v1.22A8.51,8.51,0,0,1,2936.72,1336.36Zm-68.94-22.87h-.25l-40.84-1.21a8.51,8.51,0,1,1,.5-17l40.84,1.2a8.51,8.51,0,0,1-.25,17Zm-81.68-2.41h-.26l-40.84-1.2a8.51,8.51,0,0,1,.25-17h.26l40.84,1.21a8.51,8.51,0,0,1-.25,17Zm-81.69-2.42h-.25l-40.84-1.21a8.51,8.51,0,1,1,.5-17l40.84,1.21a8.51,8.51,0,0,1-.25,17Zm-81.68-2.41h-.26l-40.84-1.2a8.51,8.51,0,0,1-8.25-8.76,8.39,8.39,0,0,1,8.76-8.26l40.84,1.21a8.51,8.51,0,0,1-.25,17Zm-81.69-2.42h-.25l-40.84-1.21a8.51,8.51,0,1,1,.5-17l40.84,1.21a8.51,8.51,0,0,1-.25,17Zm-81.68-2.41h-.26l-40.84-1.21a8.51,8.51,0,0,1,.25-17h.26l40.84,1.21a8.51,8.51,0,0,1-.25,17Zm-81.69-2.42h-.25l-40.85-1.21a8.51,8.51,0,0,1,.25-17h.26l40.84,1.2a8.51,8.51,0,0,1-.25,17Zm-81.68-2.41h-.26l-40.84-1.21a8.51,8.51,0,0,1,.25-17h.25l40.85,1.21a8.51,8.51,0,0,1-.25,17Zm-81.69-2.41h-.25l-40.85-1.2a8.51,8.51,0,0,1,.25-17h.26l40.84,1.21a8.51,8.51,0,0,1-.25,17Zm-81.68-2.42h-.26l-40.84-1.21a8.51,8.51,0,0,1,.25-17h.25l40.85,1.21a8.51,8.51,0,0,1-.25,17Zm-81.69-2.42h-.26l-40.84-1.21a8.51,8.51,0,0,1,.51-17l40.84,1.21a8.51,8.51,0,0,1-.25,17Zm-81.68-2.41H1969l-40.84-1.21a8.51,8.51,0,1,1,.5-17l40.84,1.2a8.51,8.51,0,0,1-.24,17Zm-81.69-2.42h-.26l-40.84-1.21a8.51,8.51,0,0,1,.51-17l40.84,1.21a8.51,8.51,0,0,1-.25,17Zm-81.68-2.41h-.26l-40.84-1.21a8.61,8.61,0,0,1-8.37-8.64,8.41,8.41,0,0,1,8.39-8.38h.6l40.72,1.2a8.51,8.51,0,0,1-.24,17Z"/><path class="cls-17" d="M1213.92,3089.38s85.55,38.88,86.95,45.09-55-2.08-78-1.19-42-5.91-39.89-15.67,10.14-34.29,10.14-34.29Z"/><path class="cls-18" d="M1217.05,3057.82l-5.21,38.52s-13.54,4.82-22.64-.88l-3.88-42.24Z"/><path class="cls-19" d="M814.15,3058.75l-9.95,16a19.1,19.1,0,0,0-2.28,14.94c3.48,13.28,10.43,39.17,13.46,45.92,4.13,9.2,59.49,14.66,59.49,14.66s4.94-6.95-6.56-15.34-18.88-9.71-22.94-22.09-6.76-47.41-6.76-47.41Z"/><path class="cls-20" d="M855.57,3018.15c-3.63,2.9-21.42,56.87-21.42,56.87s-5.75,7.36-16.69-3.5-4.94-4.88-4.94-4.88l2.05-53.08Z"/><path class="cls-21" d="M1264.12,2284c4.51,114.9,4.7,239.74-1.91,373.1-7.45,150.17-22.41,289-41.26,414.8-7,.22-14.37.26-22.06,0-5.2-.14-10.23-.4-15.1-.73a957.56,957.56,0,0,1-31.7-101.38A976.68,976.68,0,0,1,1130,2851.07c-16.47-130.14,2.83-141.49-10.54-237.94-11.84-85.42-28.68-88.75-48.45-210-21.44-131.59-5.48-151.33,2.29-158.46C1106.31,2214.28,1184,2235,1264.12,2284Z"/><path class="cls-22" d="M1073.26,2244.64c31.53-29,103.63-11.43,179.78,32.77-87.61,94.65-97.16,156.05-86.66,195.89,11.87,45,48,58,47.82,107.23-.17,60.51-54.77,76.53-53.61,140.56.77,42.34,24.76,41.9,30.43,94.19,6.7,61.87-24.65,83.19-14.49,129,4.37,19.69,16.83,45.42,52.34,71.93-2.56,18.8-5.18,37.41-7.92,55.67-7,.22-14.37.26-22.06,0-5.2-.14-10.23-.4-15.09-.73a955,955,0,0,1-31.71-101.38A976.32,976.32,0,0,1,1130,2851.07c-16.47-130.14,2.83-141.49-10.54-237.94-11.84-85.42-28.68-88.76-48.44-210C1049.53,2271.51,1065.49,2251.77,1073.26,2244.64Z"/><path class="cls-23" d="M1209.85,2282a2580.5,2580.5,0,0,0-353.7,757A46.18,46.18,0,0,1,830.9,3043a47,47,0,0,1-28.6-15.46,743.14,743.14,0,0,1-6.56-183.21c2.59-29.17,7.17-77.74,25.77-137.71,20.82-67.17,35.14-70.95,62.31-142,28.19-73.76,21.36-92.17,48.37-184.48a1216.59,1216.59,0,0,1,60.31-161.85Z"/><path class="cls-24" d="M1558.11,2422.1c-14.5,22.56-64.43,19.92-98.53,7.73-79.73-28.51-130.76-129.91-135.25-210.6-1-17.33-.35-34.26-3.86-34.78-8.83-1.3-31.52,103.46-49.32,192.27-14.31,5.24-36,10.8-60.81,6.74-40.59-6.65-45.42-31.87-90.81-48.31-26.48-9.59-52.43-9.61-104.33-9.66-58.59,0-60.2,7.18-71.49,1.94a57.83,57.83,0,0,1-5.19-3.26c-41.72-30,77.64-257.62,43.27-467.68-3.82-23.35-9.68-47.32,3.36-70.7,33.7-60.39,166.88-68.9,249.39-29.16,22.62,10.89,60.49,34.73,94.32,59.85,13.52,10,27.58,21.27,42.25,34.08,35.57,31.07,60.34,52.7,80.74,82.72,82.28,121.06-12.81,222,61.83,376.76C1539.34,2363.27,1573.31,2398.47,1558.11,2422.1Z"/><path class="cls-25" d="M1336.9,1734.81s-21.43,24.33-44.45,36.93c-20.8,11.39-66.67-7.8-77.28-10s2.12,26.32,22.14,46,86.2,64.73,104,65.49-2.88-14.88-13.84-33.08,4.49-55.83,18.32-67.43S1336.9,1734.81,1336.9,1734.81Z"/><path class="cls-26" d="M1526,2421.29s30.77,14.7,52.56,17.78,26.51,20.47,20.47,26.87-40.71-.61-52.31-7.13S1526,2421.29,1526,2421.29Z"/><path class="cls-27" d="M1386.12,1753.84c24.3-1.84,48.86-31.78,43.9-44.85-1.42-3.73-4.58-4.32-52.16-12.16-23.63-3.89-35.44-5.5-43.6,1-5,4-8.88,11.09-10.11,17.81-.63,3.45-.66,8.21-.07,17.69.53,8.41.37,8,.59,10.52.52,6,2.15,16.46,8,31a76.38,76.38,0,0,1,9.68-9,67.08,67.08,0,0,1,14.74-8.68C1369.12,1752.39,1378.23,1754.44,1386.12,1753.84Z"/><path class="cls-28" d="M1323.76,1758.68s1.08,23.25,23,33.47c19.62,9.14,45.67-31.83,38.5-47.47-2.39-5.22-9.79-10.9-17.37-12.66-4.48-1-6.68-.14-14-2-6.72-1.7-8-3.26-10.62-2.74-3.24.66-7.38,4.35-10.47,18.8-1.61-5.64-5.18-9.42-9-9.65a7.36,7.36,0,0,0-3.87,1.08C1314.59,1740.93,1315.63,1749.55,1323.76,1758.68Z"/><path class="cls-29" d="M2259,2091.27,767.5,2109.39c-11.28.14-20.43,8.81-20.43,19.38v320.55c0,10.57,9.15,18.89,20.43,18.58L2259,2427.43A18.52,18.52,0,0,0,2277,2409V2109A17.65,17.65,0,0,0,2259,2091.27Z"/><path class="cls-30" d="M2227.91,2124.27,802.8,2143.65c-10.29.15-18.63,8.09-18.63,17.74v253.86c0,9.65,8.34,17.27,18.63,17l1425.11-36.6a17,17,0,0,0,16.45-16.84V2140.46A16.17,16.17,0,0,0,2227.91,2124.27Z"/><path class="cls-31" d="M799.46,2228c-32.85-16.11-103.78-57.35-125.59-133.32-36.3-126.47,92.82-247.11,159.48-292.24,76.42-51.76,153.22-60.11,199.89-65.19,57.9-6.3,93.25-10.15,119.79,11.59,68.65,56.22,27.38,241.74-40.57,260.83-22.25,6.25-30.67-10-77.29-21.25-15.18-3.66-128.49-31-187.41,29-41.24,42-46.5,117.13-17.39,187.41Z"/><path class="cls-32" d="M806.09,2223,823.48,2210s10.92,7.56,24.25,6.52c7.27-.56,16.92,3.8,19.09,6.11s12.31,7.86-2.19,6.41-16.83,2.59-14.81,9.84,14.12,27.53,20.27,31.88-11.49,7.24-18.73,4.59-18.84-7.49-27.29-23.19C821,2246.43,806.09,2223,806.09,2223Z"/><path class="cls-33" d="M2138.87,1620.17c18.2,11.86,41.08,4.43,51.09-16.61s3.37-47.71-14.85-59.56c-.94-.61-1.9-1.14-2.87-1.66a268.67,268.67,0,0,0,7.65-35.9c1,.08,2.09.16,3.15.14,20.79-.28,37.31-20.09,36.87-44.25s-17.65-43.51-38.44-43.2a31.08,31.08,0,0,0-3.22.23,271.71,271.71,0,0,0-8.89-35.66c.95-.54,1.9-1.1,2.83-1.75,17.78-12.35,23.47-39.19,12.7-59.94s-33.9-27.53-51.66-15.17c-.91.64-1.77,1.33-2.62,2a222.93,222.93,0,0,0-23-25.79c.58-1,1.15-2,1.67-3.14,10-21.07,23.06-43.92,4.73-55.36-42.36-26.45-60.52-8.24-70.49,12.81-.52,1.09-1,2.2-1.39,3.32a179.75,179.75,0,0,0-30.85-9.08c.07-1.21.12-2.42.09-3.66-.43-24.08,6-36.58-14.77-38.71-45.22-4.65-60.46,16-60,40,0,1.26.12,2.49.23,3.72a182.09,182.09,0,0,0-30.4,10.09c-.47-1.11-1-2.22-1.51-3.3-10.68-20.64-33.62-27.37-51.23-15s-23.24,39-12.58,59.67c.55,1.06,1.15,2,1.75,3a221.11,221.11,0,0,0-21.83,26.47c-.87-.68-1.76-1.35-2.69-2-18-11.72-40.64-4.22-50.53,16.73s-3.33,47.43,14.67,59.16c.93.61,1.88,1.13,2.84,1.64a267.22,267.22,0,0,0-7.56,35.71,29.18,29.18,0,0,0-3.11-.14c-20.53.3-36.82,20-36.39,44s17.41,43.22,37.94,42.94a30.5,30.5,0,0,0,3.18-.23,270.39,270.39,0,0,0,8.79,35.48c-.94.53-1.88,1.09-2.8,1.73-17.57,12.23-23.19,38.88-12.55,59.54s45.89,33,63.49,20.73c.9-.62-10.63-6.72-9.79-7.42a223.05,223.05,0,0,0,22.83,25.8c-.58,1-1.15,2-1.67,3.12-9.91,20.92-3.33,47.46,14.71,59.29s40.74,4.47,50.68-16.47c.51-1.08,1-2.19,1.38-3.3a180.88,180.88,0,0,0,30.76,9.27c-.07,1.21-.12,2.42-.1,3.66.44,24.06,17.52,43.41,38.18,43.21s37.08-19.9,36.65-44c0-1.26-.12-2.5-.23-3.73a181.69,181.69,0,0,0,30.49-9.9c.48,1.12,1,2.23,1.53,3.31,10.73,20.77,33.8,27.69,51.53,15.45s23.42-39,12.67-59.82c-.55-1.07-1.15-2.07-1.76-3.06a221.79,221.79,0,0,0,22-26.48C2137,1618.88,2137.93,1619.56,2138.87,1620.17Zm-226-16.57c-65.55-42.85-89.44-139.16-53.45-215.25s118.53-103.47,184.34-60.8,90,139.43,53.75,215.79S1978.5,1646.53,1912.82,1603.6Z"/><path class="cls-34" d="M2183,1506.58c20.79-.28,37.31-20.09,36.87-44.25s-17.65-43.51-38.44-43.2a31.08,31.08,0,0,0-3.22.23,271.71,271.71,0,0,0-8.89-35.66c.95-.54,1.9-1.1,2.83-1.75,17.78-12.35,39.8-44,27.24-63.53-23.81-37.12-48.44-23.94-66.2-11.58-.91.64-1.77,1.33-2.61,2a223.94,223.94,0,0,0-23-25.79c.58-1,1.15-2,1.67-3.14a49.88,49.88,0,0,0,2.33-36q-25.71,48.19-50.62,96.87c52.62,47.29,69.39,133.28,36.47,202.54-27.86,58.64-83.19,88.06-137.13,79-2.4,6.74-4.76,13.52-7.34,20.17-7,18.06-14.91,35.64-22.86,53.19q7.5,2.25,15.05,3.8c-.07,1.21-.12,2.42-.1,3.66.44,24.06,13.53,45.65,51,46.79,20.73.63,24.29-23.48,23.86-47.58,0-1.25-.12-2.49-.23-3.72a181.69,181.69,0,0,0,30.49-9.9c.48,1.12,1,2.23,1.53,3.31,10.73,20.77,48,32.51,65.72,20.26s9.23-43.85-1.52-64.63c-.55-1.07-1.15-2.07-1.76-3.06a221.79,221.79,0,0,0,22-26.48c.88.69,1.77,1.37,2.71,2,18.2,11.86,41.08,4.43,51.09-16.61s3.37-47.71-14.85-59.56c-.94-.61-1.9-1.14-2.87-1.66a268.67,268.67,0,0,0,7.65-35.9C2180.93,1506.52,2182,1506.59,2183,1506.58Z"/><path class="cls-35" d="M2158.45,1624.35c18.2,11.87,41.1,4.44,51.12-16.6s3.37-47.73-14.86-59.59c-.95-.61-1.91-1.14-2.88-1.65a265.85,265.85,0,0,0,7.65-35.92c1.05.09,2.1.16,3.16.15,20.81-.28,37.33-20.1,36.89-44.27s-17.66-43.52-38.46-43.21a31.08,31.08,0,0,0-3.22.23,271.89,271.89,0,0,0-8.9-35.67c1-.54,1.91-1.11,2.84-1.75,17.79-12.35,23.48-39.2,12.7-60s-33.92-27.54-51.69-15.17c-.91.63-1.77,1.33-2.62,2a222.17,222.17,0,0,0-23-25.8c.59-1,1.16-2.05,1.68-3.14,10-21.07,3.36-47.69-14.83-59.44s-41-4.18-51,16.88c-.52,1.09-1,2.2-1.4,3.32a180.53,180.53,0,0,0-30.86-9.09c.07-1.21.12-2.42.1-3.65-.44-24.1-17.56-43.33-38.23-43s-37.05,20.19-36.62,44.25c0,1.26.12,2.49.23,3.72a182.31,182.31,0,0,0-30.42,10.09c-.47-1.11-.95-2.22-1.51-3.3-10.69-20.65-33.64-27.38-51.27-15s-23.24,39-12.58,59.68c.55,1,1.15,2,1.76,3a220.57,220.57,0,0,0-21.85,26.48c-.87-.69-1.76-1.36-2.69-2-18-11.72-40.66-4.23-50.56,16.73s-3.33,47.44,14.68,59.18c.93.6,1.88,1.13,2.84,1.64a266,266,0,0,0-7.56,35.71c-1-.08-2.07-.15-3.12-.13-20.54.3-36.83,20-36.4,44s17.42,43.23,38,43c1.07,0,2.12-.12,3.17-.23a272.42,272.42,0,0,0,8.8,35.48c-.94.54-1.88,1.09-2.8,1.73-17.58,12.23-23.2,38.89-12.56,59.56s33.54,27.54,51.14,15.33c.9-.63,1.75-1.32,2.59-2a223.35,223.35,0,0,0,22.84,25.81c-.58,1-1.15,2-1.66,3.12-9.92,20.93-3.34,47.48,14.71,59.32s40.77,4.47,50.71-16.47c.51-1.09,1-2.2,1.38-3.31a180.23,180.23,0,0,0,30.78,9.28c-.07,1.21-.12,2.42-.09,3.65.43,24.08,17.52,43.43,38.19,43.23s37.1-19.9,36.67-44c0-1.26-.12-2.5-.23-3.73a180.81,180.81,0,0,0,30.52-9.9c.47,1.12,1,2.23,1.52,3.31,10.74,20.78,33.82,27.7,51.57,15.46s23.43-39,12.68-59.84c-.55-1.06-1.16-2.07-1.77-3.06a221.18,221.18,0,0,0,22-26.49C2156.61,1623.06,2157.5,1623.74,2158.45,1624.35Zm-226.18-16.59c-65.59-42.86-89.5-139.2-53.49-215.31s118.6-103.49,184.45-60.81,90.09,139.48,53.78,215.86S1998,1650.71,1932.27,1607.76Z"/><path class="cls-36" d="M2906.72,1326.61c33.4,21.39,75.41,7.83,93.81-30.34s6.19-86.48-27.28-107.82c-1.74-1.1-3.51-2-5.28-3a478.93,478.93,0,0,0,14.05-65.11c1.91.15,3.84.27,5.8.23,38.21-.68,68.58-36.74,67.78-80.54s-32.47-78.67-70.68-77.88c-2,0-4,.24-5.91.47a483,483,0,0,0-16.34-64.5c1.76-1,3.51-2,5.21-3.2,32.67-22.6,43.12-71.32,23.33-108.76s-62.26-49.36-94.84-26.71c-1.67,1.16-3.24,2.43-4.79,3.72a401.11,401.11,0,0,0-42.2-46.32c1.07-1.85,2.12-3.72,3.07-5.71,18.32-38.28,42.28-79.84,8.67-100.24-77.58-47.08-110.8-13.84-129,24.39-.94,2-1.76,4-2.54,6a330.14,330.14,0,0,0-56.36-15.87c.12-2.19.21-4.38.17-6.61-.79-43.5,10.92-66.19-27-69.66-82.47-7.55-110.24,29.93-109.45,73.32,0,2.27.21,4.49.42,6.71a335.93,335.93,0,0,0-55.34,18.7c-.85-2-1.74-4-2.76-5.91-19.42-37-61.13-48.75-93.13-26.22s-42.18,70.68-22.83,107.66c1,1.9,2.08,3.68,3.18,5.45a404.37,404.37,0,0,0-39.63,48c-1.58-1.22-3.18-2.42-4.88-3.5-32.67-20.81-73.66-7-91.58,30.84s-6,85.34,26.58,106.22c1.69,1.08,3.41,2,5.14,2.91a478.41,478.41,0,0,0-13.69,64.33c-1.87-.14-3.74-.25-5.65-.21-37.16.77-66.63,36.34-65.85,79.46s31.5,77.55,68.67,76.89a57.16,57.16,0,0,0,5.75-.45,485.16,485.16,0,0,0,15.94,63.76c-1.71,1-3.42,2-5.08,3.13-31.82,22.12-42,70.09-22.73,107.2s83.18,59.06,115.11,37c1.63-1.14-19.29-12.06-17.77-13.33a400.79,400.79,0,0,0,41.44,46.36c-1.06,1.82-2.09,3.67-3,5.62-18,37.72-6,85.5,26.71,106.77s74.07,8,92.15-29.8c.93-2,1.74-4,2.52-6a330.34,330.34,0,0,0,56,16.65c-.11,2.18-.2,4.37-.16,6.6.78,43.41,31.92,78.3,69.6,77.91s67.69-36,66.9-79.5c0-2.28-.21-4.51-.42-6.74a334,334,0,0,0,55.75-18c.86,2,1.76,4,2.78,6,19.63,37.52,61.85,50,94.34,27.8s42.93-70.7,23.22-108.27c-1-1.93-2.12-3.74-3.24-5.53a401.67,401.67,0,0,0,40.39-48C2903.35,1324.28,2905,1325.51,2906.72,1326.61Zm-413-28.75c-119.17-76.82-162.54-250-97.19-387.47,65.5-137.76,215.76-188.23,335.95-112.15,120.69,76.41,164.87,251.1,98.35,389.6C2764.44,1326,2613.36,1375,2493.69,1297.86Z"/><path class="cls-37" d="M2987.82,1120.6c38.21-.68,68.58-36.74,67.78-80.54s-32.47-78.67-70.68-77.88c-2,0-4,.24-5.91.47a483,483,0,0,0-16.34-64.5c1.76-1,3.51-2,5.21-3.2,32.67-22.6,73.14-80.19,50-115.47-43.76-66.9-89-42.65-121.56-20-1.67,1.16-3.24,2.43-4.79,3.72a401.11,401.11,0,0,0-42.2-46.32c1.07-1.85,2.12-3.72,3.07-5.71a89.33,89.33,0,0,0,4.27-65.21q-47.1,87.62-92.69,176c96.36,84.85,127.1,240.27,66.77,365.89-51,106.23-152.18,159.69-250.6,143.66-4.38,12.17-8.68,24.41-13.37,36.43-12.73,32.6-27.18,64.35-41.64,96q13.64,4,27.39,6.81c-.11,2.18-.2,4.37-.16,6.59.78,43.42,24.64,82.36,92.93,84.38,37.85,1.13,44.36-42.44,43.57-86,0-2.28-.21-4.51-.41-6.74a334.17,334.17,0,0,0,55.74-18c.86,2,1.76,4,2.78,6,19.63,37.52,87.82,58.67,120.33,36.48s16.94-79.38-2.77-117c-1-1.93-2.12-3.74-3.24-5.53a402.46,402.46,0,0,0,40.39-48c1.61,1.25,3.25,2.47,5,3.57,33.4,21.39,75.41,7.82,93.81-30.34s6.19-86.49-27.28-107.82c-1.74-1.1-3.51-2-5.28-3a478.93,478.93,0,0,0,14.05-65.11C2983.93,1120.52,2985.86,1120.64,2987.82,1120.6Z"/><path class="cls-38" d="M2942.64,1334.1c33.44,21.4,75.51,7.83,93.93-30.36s6.2-86.53-27.32-107.88c-1.73-1.11-3.5-2.06-5.28-3a477.7,477.7,0,0,0,14.06-65.15c1.92.15,3.85.27,5.81.23,38.26-.67,68.67-36.75,67.87-80.58s-32.51-78.72-70.77-77.94c-2,0-4,.24-5.91.47a486.69,486.69,0,0,0-16.36-64.54c1.75-1,3.5-2,5.21-3.21,32.71-22.61,43.18-71.35,23.35-108.82s-62.33-49.4-94.95-26.74c-1.68,1.16-3.25,2.43-4.8,3.73A400.2,400.2,0,0,0,2885.23,724c1.07-1.85,2.12-3.73,3.07-5.71,18.35-38.31,6.17-86.38-27.18-107.33s-75.08-6.84-93.35,31.41c-.94,2-1.76,4-2.54,6a330.35,330.35,0,0,0-56.43-15.9c.11-2.19.21-4.38.17-6.61-.8-43.52-32.07-78-69.82-76.89s-67.58,37.12-66.79,80.54c0,2.27.22,4.5.42,6.71a337,337,0,0,0-55.41,18.71c-.85-2-1.74-4-2.76-5.92-19.45-37-61.21-48.79-93.25-26.25s-42.23,70.73-22.86,107.73c1,1.9,2.08,3.69,3.19,5.45A404.77,404.77,0,0,0,2362,784c-1.58-1.21-3.19-2.41-4.88-3.49-32.72-20.84-73.76-7-91.7,30.85s-6,85.39,26.61,106.28c1.69,1.09,3.42,2,5.15,2.92a479,479,0,0,0-13.71,64.37c-1.87-.14-3.75-.26-5.65-.22-37.22.77-66.72,36.36-65.94,79.51s31.54,77.6,68.76,76.94c1.95,0,3.86-.22,5.76-.44a484.05,484.05,0,0,0,16,63.79c-1.71,1-3.42,2-5.08,3.14-31.87,22.13-42.05,70.13-22.76,107.26s60.82,49.41,92.76,27.33c1.64-1.13,3.18-2.37,4.7-3.64a402.43,402.43,0,0,0,41.49,46.39c-1.06,1.82-2.09,3.67-3,5.63-18,37.74-6.06,85.55,26.74,106.84s74.17,8,92.27-29.81c.93-2,1.74-4,2.52-6a331,331,0,0,0,56.08,16.67c-.12,2.18-.21,4.37-.17,6.6.79,43.44,32,78.35,69.69,78s67.78-36,67-79.55c0-2.27-.22-4.51-.42-6.73a335.89,335.89,0,0,0,55.81-18c.87,2,1.76,4,2.79,6,19.65,37.55,61.93,50,94.46,27.84s43-70.75,23.25-108.35c-1-1.92-2.12-3.73-3.24-5.53a402.17,402.17,0,0,0,40.43-48C2939.27,1331.76,2940.91,1333,2942.64,1334.1Zm-413.55-28.84c-119.32-76.88-162.75-250.21-97.31-387.72,65.58-137.83,216-188.32,336.37-112.18,120.84,76.47,165.08,251.28,98.48,389.86C2800.18,1333.47,2648.91,1382.48,2529.09,1305.26Z"/></g></g></svg>